<svg width="249" height="49" viewBox="0 0 249 49" fill="none" xmlns="http://www.w3.org/2000/svg">
<path d="M0.0625 30.8438C0.0625 25.5729 1.23958 21.375 3.59375 18.25C5.96875 15.125 9.20833 13.5625 13.3125 13.5625C16.6042 13.5625 19.3229 14.7917 21.4688 17.25V0H30.5312V48H22.375L21.9375 44.4062C19.6875 47.2188 16.7917 48.625 13.25 48.625C9.27083 48.625 6.07292 47.0625 3.65625 43.9375C1.26042 40.7917 0.0625 36.4271 0.0625 30.8438ZM9.09375 31.5C9.09375 34.6667 9.64583 37.0938 10.75 38.7812C11.8542 40.4688 13.4583 41.3125 15.5625 41.3125C18.3542 41.3125 20.3229 40.1354 21.4688 37.7812V24.4375C20.3438 22.0833 18.3958 20.9062 15.625 20.9062C11.2708 20.9062 9.09375 24.4375 9.09375 31.5ZM53.0938 48.625C48.1354 48.625 44.0938 47.1042 40.9688 44.0625C37.8646 41.0208 36.3125 36.9688 36.3125 31.9062V31.0312C36.3125 27.6354 36.9688 24.6042 38.2812 21.9375C39.5938 19.25 41.4479 17.1875 43.8438 15.75C46.2604 14.2917 49.0104 13.5625 52.0938 13.5625C56.7188 13.5625 60.3542 15.0208 63 17.9375C65.6667 20.8542 67 24.9896 67 30.3438V34.0312H45.4688C45.7604 36.2396 46.6354 38.0104 48.0938 39.3438C49.5729 40.6771 51.4375 41.3438 53.6875 41.3438C57.1667 41.3438 59.8854 40.0833 61.8438 37.5625L66.2812 42.5312C64.9271 44.4479 63.0938 45.9479 60.7812 47.0312C58.4688 48.0938 55.9062 48.625 53.0938 48.625ZM52.0625 20.875C50.2708 20.875 48.8125 21.4792 47.6875 22.6875C46.5833 23.8958 45.875 25.625 45.5625 27.875H58.125V27.1562C58.0833 25.1562 57.5417 23.6146 56.5 22.5312C55.4583 21.4271 53.9792 20.875 52.0625 20.875ZM84.375 36.9688L90.6562 14.1875H100.094L88.6875 48H80.0625L68.6562 14.1875H78.0938L84.375 36.9688Z" fill="#A7A5EC"/>
<path d="M104.688 48V2.5H120.625C126.146 2.5 130.333 3.5625 133.188 5.6875C136.042 7.79167 137.469 10.8854 137.469 14.9688C137.469 17.1979 136.896 19.1667 135.75 20.875C134.604 22.5625 133.01 23.8021 130.969 24.5938C133.302 25.1771 135.135 26.3542 136.469 28.125C137.823 29.8958 138.5 32.0625 138.5 34.625C138.5 39 137.104 42.3125 134.312 44.5625C131.521 46.8125 127.542 47.9583 122.375 48H104.688ZM114.062 28.1875V40.4688H122.094C124.302 40.4688 126.021 39.9479 127.25 38.9062C128.5 37.8438 129.125 36.3854 129.125 34.5312C129.125 30.3646 126.969 28.25 122.656 28.1875H114.062ZM114.062 21.5625H121C125.729 21.4792 128.094 19.5938 128.094 15.9062C128.094 13.8438 127.49 12.3646 126.281 11.4688C125.094 10.5521 123.208 10.0938 120.625 10.0938H114.062V21.5625ZM143.562 30.7812C143.562 27.4271 144.208 24.4375 145.5 21.8125C146.792 19.1875 148.646 17.1562 151.062 15.7188C153.5 14.2812 156.323 13.5625 159.531 13.5625C164.094 13.5625 167.812 14.9583 170.688 17.75C173.583 20.5417 175.198 24.3333 175.531 29.125L175.594 31.4375C175.594 36.625 174.146 40.7917 171.25 43.9375C168.354 47.0625 164.469 48.625 159.594 48.625C154.719 48.625 150.823 47.0625 147.906 43.9375C145.01 40.8125 143.562 36.5625 143.562 31.1875V30.7812ZM152.594 31.4375C152.594 34.6458 153.198 37.1042 154.406 38.8125C155.615 40.5 157.344 41.3438 159.594 41.3438C161.781 41.3438 163.49 40.5104 164.719 38.8438C165.948 37.1562 166.562 34.4688 166.562 30.7812C166.562 27.6354 165.948 25.1979 164.719 23.4688C163.49 21.7396 161.76 20.875 159.531 20.875C157.323 20.875 155.615 21.7396 154.406 23.4688C153.198 25.1771 152.594 27.8333 152.594 31.4375ZM179.75 30.7812C179.75 27.4271 180.396 24.4375 181.688 21.8125C182.979 19.1875 184.833 17.1562 187.25 15.7188C189.688 14.2812 192.51 13.5625 195.719 13.5625C200.281 13.5625 204 14.9583 206.875 17.75C209.771 20.5417 211.385 24.3333 211.719 29.125L211.781 31.4375C211.781 36.625 210.333 40.7917 207.438 43.9375C204.542 47.0625 200.656 48.625 195.781 48.625C190.906 48.625 187.01 47.0625 184.094 43.9375C181.198 40.8125 179.75 36.5625 179.75 31.1875V30.7812ZM188.781 31.4375C188.781 34.6458 189.385 37.1042 190.594 38.8125C191.802 40.5 193.531 41.3438 195.781 41.3438C197.969 41.3438 199.677 40.5104 200.906 38.8438C202.135 37.1562 202.75 34.4688 202.75 30.7812C202.75 27.6354 202.135 25.1979 200.906 23.4688C199.677 21.7396 197.948 20.875 195.719 20.875C193.51 20.875 191.802 21.7396 190.594 23.4688C189.385 25.1771 188.781 27.8333 188.781 31.4375ZM229.625 34.4375L226.375 37.6875V48H217.344V0H226.375V26.5938L228.125 24.3438L236.781 14.1875H247.625L235.406 28.2812L248.688 48H238.312L229.625 34.4375Z" fill="#6C80EA"/>
</svg>
